<svg width="300" height="300" viewBox="0 0 300 300" fill="none" xmlns="http://www.w3.org/2000/svg">
<path d="M0 50C0 22.3858 22.3858 0 50 0H250C277.614 0 300 22.3858 300 50V250C300 277.614 277.614 300 250 300H50C22.3858 300 0 277.614 0 250V50Z" fill="white"/>
<path d="M201.857 132C204.922 132 207.623 133.987 208.546 136.912C209.442 139.836 208.364 143.013 205.832 144.734L52.98 250.567C51.7766 251.407 50.3912 251.813 48.9919 251.813C47.6345 251.813 46.2631 251.421 45.0877 250.623C42.7088 249.014 41.5473 246.117 42.163 243.305L66 132H201.857Z" fill="#FF595E"/>
<path d="M227.802 258.768L139.74 212.141C137.445 210.924 134.646 211.092 132.477 212.561L65.1405 259.187C62.6216 260.937 61.5301 264.113 62.4537 267.038C63.3493 269.934 66.0641 271.936 69.1146 271.936H224.513C227.718 271.936 230.53 269.753 231.3 266.618C232.084 263.497 230.628 260.265 227.802 258.768Z" fill="#FFCA3A"/>
<path d="M257.272 245.474L236.561 152.235C236.058 149.954 234.448 148.093 232.279 147.239C230.096 146.385 227.648 146.679 225.744 147.995L158.394 194.621C156.378 196.021 155.245 198.357 155.399 200.778C155.539 203.227 156.952 205.41 159.107 206.544L247.155 253.17C248.19 253.716 249.31 253.996 250.429 253.996C251.926 253.996 253.424 253.52 254.669 252.554C256.838 250.903 257.86 248.146 257.272 245.474Z" fill="#1982C4"/>
<path d="M35 73.3268C35 45.8442 57.8524 23.2831 86.4602 23.0026H86.999C115.863 23.0026 139 45.6738 139 73.3268C139 100.983 115.863 123.653 86.9997 123.653C58.1401 123.653 35 100.983 35 73.3268Z" fill="white" stroke="white" stroke-width="10"/>
<path d="M87 128.653C41.856 127.768 30.57 91.3998 30.57 73.3265C30.57 123.674 61.35 179 87 179C112.65 179 143.43 123.674 143.43 73.3265C143.43 91.3998 132.144 127.768 87 128.653Z" fill="white" stroke="white"/>
<path d="M42 75.0003C42 50.3039 61.895 30.2537 86.5312 30.0024H86.9991C111.855 30.0024 132 50.1494 132 75.0003C132 99.8542 111.855 120 86.9997 120C62.1475 120 42 99.8541 42 75.0003Z" stroke="black" stroke-width="10"/>
<path d="M86.9998 35C64.909 35 47 52.9089 47 75.0002C47 97.0925 64.909 115 86.9998 115C109.093 115 127 97.0925 127 75.0002C127 52.9104 109.093 35.0019 86.9993 35.0019L86.9998 35ZM105.343 92.6918C104.627 93.8669 103.089 94.2394 101.914 93.5182C92.5223 87.7815 80.6996 86.4822 66.7761 89.6635C65.4344 89.9692 64.097 89.1285 63.7913 87.7863C63.4841 86.444 64.3215 85.1066 65.6665 84.8009C80.9035 81.3197 93.9734 82.8186 104.517 89.2622C105.692 89.9835 106.065 91.5168 105.343 92.6918ZM110.239 81.8002C109.337 83.2676 107.416 83.7309 105.95 82.8281C95.1981 76.2192 78.8086 74.3052 66.0912 78.1657C64.4418 78.6639 62.6998 77.7344 62.1993 76.0879C61.7025 74.4385 62.6325 72.6998 64.279 72.1983C78.8057 67.7904 96.8651 69.9256 109.212 77.5132C110.679 78.416 111.142 80.3357 110.239 81.8002ZM110.66 70.4586C97.7679 62.8013 76.4982 62.0972 64.1896 65.833C62.2131 66.4324 60.1229 65.3166 59.524 63.3401C58.925 61.3626 60.0398 59.2737 62.0178 58.6729C76.1471 54.3835 99.6355 55.2122 114.478 64.0236C116.26 65.0788 116.842 67.3749 115.787 69.1503C114.736 70.9282 112.434 71.5143 110.662 70.4586H110.66Z" fill="#1ED760"/>
<path d="M87 125C47.4 124.2 37.5 91.3333 37.5 75C37.5 120.5 64.5 170.5 87 170.5C109.5 170.5 136.5 120.5 136.5 75C136.5 91.3333 126.6 124.2 87 125Z" fill="black" stroke="black"/>
<path d="M35 73.3268C35 45.8442 57.8524 23.2831 86.4602 23.0026H86.999C115.863 23.0026 139 45.6738 139 73.3268C139 100.983 115.863 123.653 86.9997 123.653C58.1401 123.653 35 100.983 35 73.3268Z" fill="white" stroke="white" stroke-width="10"/>
<path d="M87 128.653C41.856 127.768 30.57 91.3998 30.57 73.3265C30.57 123.674 61.35 179 87 179C112.65 179 143.43 123.674 143.43 73.3265C143.43 91.3998 132.144 127.768 87 128.653Z" fill="white" stroke="white"/>
<path d="M42 75.0003C42 50.3039 61.895 30.2537 86.5312 30.0024H86.9991C111.855 30.0024 132 50.1494 132 75.0003C132 99.8542 111.855 120 86.9997 120C62.1475 120 42 99.8541 42 75.0003Z" stroke="black" stroke-width="10"/>
<path d="M86.9998 35C64.909 35 47 52.9089 47 75.0002C47 97.0925 64.909 115 86.9998 115C109.093 115 127 97.0925 127 75.0002C127 52.9104 109.093 35.0019 86.9993 35.0019L86.9998 35ZM105.343 92.6918C104.627 93.8669 103.089 94.2394 101.914 93.5182C92.5223 87.7815 80.6996 86.4822 66.7761 89.6635C65.4344 89.9692 64.097 89.1285 63.7913 87.7863C63.4841 86.444 64.3215 85.1066 65.6665 84.8009C80.9035 81.3197 93.9734 82.8186 104.517 89.2622C105.692 89.9835 106.065 91.5168 105.343 92.6918ZM110.239 81.8002C109.337 83.2676 107.416 83.7309 105.95 82.8281C95.1981 76.2192 78.8086 74.3052 66.0912 78.1657C64.4418 78.6639 62.6998 77.7344 62.1993 76.0879C61.7025 74.4385 62.6325 72.6998 64.279 72.1983C78.8057 67.7904 96.8651 69.9256 109.212 77.5132C110.679 78.416 111.142 80.3357 110.239 81.8002ZM110.66 70.4586C97.7679 62.8013 76.4982 62.0972 64.1896 65.833C62.2131 66.4324 60.1229 65.3166 59.524 63.3401C58.925 61.3626 60.0398 59.2737 62.0178 58.6729C76.1471 54.3835 99.6355 55.2122 114.478 64.0236C116.26 65.0788 116.842 67.3749 115.787 69.1503C114.736 70.9282 112.434 71.5143 110.662 70.4586H110.66Z" fill="#1ED760"/>
<path d="M87 125C47.4 124.2 37.5 91.3333 37.5 75C37.5 120.5 64.5 170.5 87 170.5C109.5 170.5 136.5 120.5 136.5 75C136.5 91.3333 126.6 124.2 87 125Z" fill="black" stroke="black"/>
<path d="M240.049 118.337H240.047V128.337H240.049V118.337ZM215.113 93.0019H215.499C235.852 93.0019 252 108.798 252 127.863C252 146.93 235.852 162.725 215.5 162.725C195.15 162.725 179 146.93 179 127.863C179 108.918 194.946 93.2006 215.113 93.0019Z" fill="white" stroke="white" stroke-width="10"/>
<path d="M215.5 167.725C182.632 167.087 174.415 140.884 174.415 127.863C174.415 164.137 196.825 204 215.5 204C234.175 204 256.585 164.137 256.585 127.863C256.585 140.884 248.368 167.087 215.5 167.725Z" fill="white" stroke="white"/>
<path d="M236.622 120.305H236.62V130.305H236.622V120.305ZM215.251 98.5045H215.576C232.426 98.5045 246.154 112.288 246.154 129.379C246.154 146.471 232.426 160.254 215.577 160.254C198.729 160.254 185 146.471 185 129.379C185 112.397 198.553 98.6806 215.251 98.5045Z" stroke="black" stroke-width="10"/>
<path d="M215.577 100.678C199.858 100.678 187.115 113.528 187.115 129.379C187.115 145.23 199.858 158.079 215.577 158.079C231.297 158.079 244.038 145.23 244.038 129.379C244.038 113.529 231.297 100.679 215.576 100.679L215.577 100.678ZM228.629 142.073C228.119 142.916 227.025 143.183 226.189 142.666C219.506 138.549 211.094 137.617 201.187 139.9C200.232 140.119 199.281 139.516 199.063 138.553C198.844 137.59 199.44 136.63 200.397 136.411C211.239 133.913 220.539 134.988 228.041 139.612C228.877 140.129 229.142 141.23 228.629 142.073ZM232.113 134.258C231.47 135.311 230.104 135.643 229.061 134.995C221.41 130.253 209.748 128.88 200.699 131.65C199.526 132.007 198.286 131.34 197.93 130.159C197.577 128.976 198.238 127.728 199.41 127.368C209.746 124.206 222.596 125.738 231.382 131.182C232.425 131.83 232.755 133.207 232.113 134.258ZM232.412 126.12C223.239 120.626 208.104 120.121 199.346 122.801C197.94 123.231 196.453 122.431 196.027 121.012C195.6 119.593 196.394 118.095 197.801 117.664C207.855 114.586 224.568 115.181 235.129 121.503C236.396 122.26 236.811 123.907 236.06 125.181C235.312 126.457 233.674 126.877 232.413 126.12H232.412Z" fill="#1ED760"/>
<path d="M215.577 165.254C187.4 164.68 180.356 141.098 180.356 129.379C180.356 162.025 199.567 197.901 215.577 197.901C231.587 197.901 250.798 162.025 250.798 129.379C250.798 141.098 243.754 164.68 215.577 165.254Z" fill="black" stroke="black"/>
</svg>
