<svg width="300" height="300" viewBox="0 0 300 300" fill="none" xmlns="http://www.w3.org/2000/svg">
<path d="M0 50C0 22.3858 22.3858 0 50 0H250C277.614 0 300 22.3858 300 50V250C300 277.614 277.614 300 250 300H50C22.3858 300 0 277.614 0 250V50Z" fill="white"/>
<path d="M202.857 132C205.922 132 208.623 133.987 209.546 136.912C210.442 139.836 209.364 143.013 206.832 144.734L53.98 250.567C52.7766 251.407 51.3912 251.813 49.9919 251.813C48.6345 251.813 47.2631 251.421 46.0877 250.623C43.7088 249.014 42.5473 246.117 43.163 243.305L67 132H202.857Z" fill="#FF595E"/>
<path d="M228.802 258.768L140.74 212.141C138.445 210.924 135.646 211.092 133.477 212.561L66.1405 259.187C63.6216 260.937 62.5301 264.113 63.4537 267.038C64.3493 269.934 67.0641 271.936 70.1146 271.936H225.513C228.718 271.936 231.53 269.753 232.3 266.618C233.084 263.497 231.628 260.265 228.802 258.768Z" fill="#FFCA3A"/>
<path d="M258.272 245.474L237.561 152.235C237.058 149.954 235.448 148.093 233.279 147.239C231.096 146.385 228.648 146.679 226.744 147.995L159.394 194.621C157.378 196.021 156.245 198.357 156.399 200.778C156.539 203.227 157.952 205.41 160.107 206.544L248.155 253.17C249.19 253.716 250.31 253.996 251.429 253.996C252.926 253.996 254.424 253.52 255.669 252.554C257.838 250.903 258.86 248.146 258.272 245.474Z" fill="#1982C4"/>
<path d="M121.718 62.045H121.715V72.045H121.718V62.045ZM87.4602 23.0026H87.999C116.863 23.0026 140 45.6738 140 73.3268C140 100.983 116.863 123.653 87.9997 123.653C59.1401 123.653 36 100.983 36 73.3268C36 45.8442 58.8524 23.2831 87.4602 23.0026Z" fill="white" stroke="white" stroke-width="10"/>
<path d="M88 128.653C42.856 127.768 31.5699 91.3998 31.5699 73.3265C31.57 123.674 62.3499 179 88 179C113.65 179 144.43 123.674 144.43 73.3265C144.43 91.3998 133.144 127.768 88 128.653Z" fill="white" stroke="white"/>
<path d="M117.577 64.3233H117.575V74.3233H117.577V64.3233ZM87.5312 30.0024H87.9991C112.855 30.0024 133 50.1494 133 75.0003C133 99.8542 112.855 120 87.9997 120C63.1475 120 43 99.8541 43 75.0003C43 50.3039 62.895 30.2537 87.5312 30.0024Z" stroke="black" stroke-width="10"/>
<path d="M87.9998 35C65.909 35 48 52.9089 48 75.0002C48 97.0925 65.909 115 87.9998 115C110.093 115 128 97.0925 128 75.0002C128 52.9104 110.093 35.0019 87.9993 35.0019L87.9998 35ZM106.343 92.6918C105.627 93.8669 104.089 94.2394 102.914 93.5182C93.5223 87.7815 81.6996 86.4822 67.7761 89.6635C66.4344 89.9692 65.097 89.1285 64.7913 87.7863C64.4841 86.444 65.3215 85.1066 66.6665 84.8009C81.9035 81.3197 94.9734 82.8186 105.517 89.2622C106.692 89.9835 107.065 91.5168 106.343 92.6918ZM111.239 81.8002C110.337 83.2676 108.416 83.7309 106.95 82.8281C96.1981 76.2192 79.8086 74.3052 67.0912 78.1657C65.4418 78.6639 63.6998 77.7344 63.1993 76.0879C62.7025 74.4385 63.6325 72.6998 65.279 72.1983C79.8057 67.7904 97.8651 69.9256 110.212 77.5132C111.679 78.416 112.142 80.3357 111.239 81.8002ZM111.66 70.4586C98.7679 62.8013 77.4982 62.0972 65.1896 65.833C63.2131 66.4324 61.1229 65.3166 60.524 63.3401C59.925 61.3626 61.0398 59.2737 63.0178 58.6729C77.1471 54.3835 100.635 55.2122 115.478 64.0236C117.26 65.0788 117.842 67.3749 116.787 69.1503C115.736 70.9282 113.434 71.5143 111.662 70.4586H111.66Z" fill="#1ED760"/>
<path d="M88 125C48.4 124.2 38.5 91.3333 38.5 75C38.5 120.5 65.5 170.5 88 170.5C110.5 170.5 137.5 120.5 137.5 75C137.5 91.3333 127.6 124.2 88 125Z" fill="black" stroke="black"/>
<path d="M117.577 64.3233H117.575V74.3233H117.577V64.3233ZM87.5312 30.0024H87.9991C112.855 30.0024 133 50.1494 133 75.0003C133 99.8542 112.855 120 87.9997 120C63.1475 120 43 99.8541 43 75.0003C43 50.3039 62.895 30.2537 87.5312 30.0024Z" stroke="#0B5B28" stroke-width="10"/>
<path d="M87.9998 35C65.909 35 48 52.9089 48 75.0002C48 97.0925 65.909 115 87.9998 115C110.093 115 128 97.0925 128 75.0002C128 52.9104 110.093 35.0019 87.9993 35.0019L87.9998 35ZM106.343 92.6918C105.627 93.8669 104.089 94.2394 102.914 93.5182C93.5223 87.7815 81.6996 86.4822 67.7761 89.6635C66.4344 89.9692 65.097 89.1285 64.7913 87.7863C64.4841 86.444 65.3215 85.1066 66.6665 84.8009C81.9035 81.3197 94.9734 82.8186 105.517 89.2622C106.692 89.9835 107.065 91.5168 106.343 92.6918ZM111.239 81.8002C110.337 83.2676 108.416 83.7309 106.95 82.8281C96.1981 76.2192 79.8086 74.3052 67.0912 78.1657C65.4418 78.6639 63.6998 77.7344 63.1993 76.0879C62.7025 74.4385 63.6325 72.6998 65.279 72.1983C79.8057 67.7904 97.8651 69.9256 110.212 77.5132C111.679 78.416 112.142 80.3357 111.239 81.8002ZM111.66 70.4586C98.7679 62.8013 77.4982 62.0972 65.1896 65.833C63.2131 66.4324 61.1229 65.3166 60.524 63.3401C59.925 61.3626 61.0398 59.2737 63.0178 58.6729C77.1471 54.3835 100.635 55.2122 115.478 64.0236C117.26 65.0788 117.842 67.3749 116.787 69.1503C115.736 70.9282 113.434 71.5143 111.662 70.4586H111.66Z" fill="#1ED760"/>
<path d="M88 125C48.4 124.2 38.5 91.3333 38.5 75C38.5 120.5 65.5 170.5 88 170.5C110.5 170.5 137.5 120.5 137.5 75C137.5 91.3333 127.6 124.2 88 125Z" fill="#0B5B28" stroke="#0B5B28"/>
<path d="M241.049 118.337H241.047V128.337H241.049V118.337ZM216.113 93.0019H216.499C236.852 93.0019 253 108.798 253 127.863C253 146.93 236.852 162.725 216.5 162.725C196.15 162.725 180 146.93 180 127.863C180 108.918 195.946 93.2006 216.113 93.0019Z" fill="white" stroke="white" stroke-width="10"/>
<path d="M216.5 167.725C183.632 167.087 175.415 140.884 175.415 127.863C175.415 164.137 197.825 204 216.5 204C235.175 204 257.585 164.137 257.585 127.863C257.585 140.884 249.368 167.087 216.5 167.725Z" fill="white" stroke="white"/>
<path d="M237.622 120.305H237.62V130.305H237.622V120.305ZM216.251 98.5045H216.576C233.426 98.5045 247.154 112.288 247.154 129.379C247.154 146.471 233.426 160.254 216.577 160.254C199.729 160.254 186 146.471 186 129.379C186 112.397 199.553 98.6806 216.251 98.5045Z" stroke="#0B5B28" stroke-width="10"/>
<path d="M216.577 100.678C200.858 100.678 188.115 113.528 188.115 129.379C188.115 145.23 200.858 158.079 216.577 158.079C232.297 158.079 245.038 145.23 245.038 129.379C245.038 113.529 232.297 100.679 216.576 100.679L216.577 100.678ZM229.629 142.073C229.119 142.916 228.025 143.183 227.189 142.666C220.506 138.549 212.094 137.617 202.187 139.9C201.232 140.119 200.281 139.516 200.063 138.553C199.844 137.59 200.44 136.63 201.397 136.411C212.239 133.913 221.539 134.988 229.041 139.612C229.877 140.129 230.142 141.23 229.629 142.073ZM233.113 134.258C232.47 135.311 231.104 135.643 230.061 134.995C222.41 130.253 210.748 128.88 201.699 131.65C200.526 132.007 199.286 131.34 198.93 130.159C198.577 128.976 199.238 127.728 200.41 127.368C210.746 124.206 223.596 125.738 232.382 131.182C233.425 131.83 233.755 133.207 233.113 134.258ZM233.412 126.12C224.239 120.626 209.104 120.121 200.346 122.801C198.94 123.231 197.453 122.431 197.027 121.012C196.6 119.593 197.394 118.095 198.801 117.664C208.855 114.586 225.568 115.181 236.129 121.503C237.396 122.26 237.811 123.907 237.06 125.181C236.312 126.457 234.674 126.877 233.413 126.12H233.412Z" fill="#1ED760"/>
<path d="M216.577 165.254C188.4 164.68 181.356 141.098 181.356 129.379C181.356 162.025 200.567 197.901 216.577 197.901C232.586 197.901 251.798 162.025 251.798 129.379C251.798 141.098 244.754 164.68 216.577 165.254Z" fill="#0B5B28" stroke="#0B5B28"/>
</svg>
